<svg id="Layer_1" data-name="Layer 1" xmlns="http://www.w3.org/2000/svg" viewBox="0 0 52.08 52.8"><defs><style>.cls-1{fill:#fefefe;}.cls-2{fill:#232020;}.cls-3{fill:#f6f6f6;}</style></defs><title>412-Logo</title><path class="cls-1" d="M537.12,1244.88v-52.8H589.2v52.8Z" transform="translate(-537.12 -1192.08)"/><path class="cls-2" d="M587.74,1218.48A24.71,24.71,0,1,1,563,1193.79,24.67,24.67,0,0,1,587.74,1218.48Z" transform="translate(-537.12 -1192.08)"/><path class="cls-1" d="M585.39,1218.49A22.35,22.35,0,1,1,563,1196.15,22.31,22.31,0,0,1,585.39,1218.49Z" transform="translate(-537.12 -1192.08)"/><path class="cls-2" d="M567.84,1211.45a8.6,8.6,0,0,1,.59-3.14,4.51,4.51,0,0,1,5-3.19,4.34,4.34,0,0,1,4,3.81,9.94,9.94,0,0,1-1.69,7.85c-.75,1.13-1.6,2.2-2.33,3.34a10.72,10.72,0,0,0-1.78,5.83h6v3.44h-9.85c0-4.73.75-9.13,3.88-12.83a8.74,8.74,0,0,0,2.32-4.9,8,8,0,0,0-.08-2c-.08-.55-.27-1-.94-1a1,1,0,0,0-1.1.91c-.2.77-.34,1.55-.53,2.41Z" transform="translate(-537.12 -1192.08)"/><path class="cls-2" d="M547.1,1223.75a7.6,7.6,0,0,1,.37-3.59c2.06-4.84,4.06-9.71,6.1-14.61h3.23v14.83c.44.42.88.15,1.3.36a20.94,20.94,0,0,1,.11,2.84c-.39.42-.85.1-1.34.44v5.35a15.83,15.83,0,0,1-3.3,0v-5.63Z" transform="translate(-537.12 -1192.08)"/><path class="cls-2" d="M561.39,1210.39h-2.25a12.64,12.64,0,0,1-.15-2.3c1.48-.29,2.74-.84,3-2.53h3.16v23.81h-3.77Z" transform="translate(-537.12 -1192.08)"/><path class="cls-3" d="M553.61,1212.76v7.76a14.07,14.07,0,0,1-3,.13C551.68,1218,552.68,1215.38,553.61,1212.76Z" transform="translate(-537.12 -1192.08)"/></svg>